<?xml version="1.0" encoding="utf-8"?>
<!-- Generator: Adobe Illustrator 24.1.0, SVG Export Plug-In . SVG Version: 6.00 Build 0)  -->
<svg version="1.1" id="Layer_1" xmlns="http://www.w3.org/2000/svg" xmlns:xlink="http://www.w3.org/1999/xlink" x="0px" y="0px"
	 viewBox="0 0 476 100" style="enable-background:new 0 0 476 100;" xml:space="preserve">
<style type="text/css">
	.st0{fill:#ee2740;}
	.st1{fill:#121212;}
</style>
<g>
	<g>
		<path class="st0" d="M82.4,15.6c0.2,3.6,0.5,11.5,4.3,13.9c2.8,1.7,7.6,4.2,12.3,5.7c-3.3-10.5-9.9-19.4-18.6-25.7
			C81.5,11,82.3,13.4,82.4,15.6z"/>
		<path class="st0" d="M44.5,92.8c0.3-4.7-7.8-9.3-11.6-9.8c-3.8-0.5-1.9-2.3-4.5-4.9c-2-1.9-1.4-4.3-1-5.4c0.1-0.4,0.4-0.6,0.8-0.8
			c1.2-0.6,4-2.1,5.1-3.4c1.4-1.6,8.4-5.3,12.6-5.1c2.9,0.2,3-2.4,2.7-4.1c-0.1-0.5,0.5-0.8,0.9-0.5c1.4,1.2,3.5,3.3,3.2,5.3
			c-0.4,2.8,5.6-6.8,7.9-4.1c2.3,2.7,0.1,6.6,1.1,11c1,4.4,3.4,2,6.1,14.7c0.9,4,2.1,7.5,3.6,10.5c5.9-2.6,11.2-6.4,15.7-11
			C79,77.7,70.3,67.5,67.4,64.1C63.3,59.2,56,50,49.2,49.9c-6.8-0.2-11.5-2.4-12.9-4.2c-1-1.4-2.1-6.4-2.5-8.7c-0.2-0.8,0.3-1.6,1-2
			c1.2-0.6,3.6-1.5,8.4-2.6c9-2,3.9-5.1,9.1-7.1c4.3-1.6,1.8-8.7,0.8-11.2c-0.1-0.2,0.2-0.5,0.4-0.3c2,1.5,7.4,5.6,9.2,7.7
			c0,0,4-1.2,7.1-0.3c0,0,6.1-13.3,8.2-13.4c0,0,0,0,0,0C70.3,2.9,61,0,51,0C23.2,0,0.7,22.5,0.7,50.3c0,25.3,18.7,46.2,43,49.7
			C44.1,96.9,44.5,94.2,44.5,92.8z"/>
	</g>
	<g>
		<path class="st1" d="M126.8,24.3c0-2,0.7-3.8,2.1-5.2c1.4-1.4,3.1-2.1,5.1-2.1c2,0,3.8,0.7,5.2,2.1c1.4,1.4,2.1,3.1,2.1,5.2
			c0,2-0.7,3.7-2.1,5.1c-1.4,1.4-3.1,2.1-5.2,2.1c-2,0-3.7-0.7-5.1-2.1C127.5,27.9,126.8,26.2,126.8,24.3z M129.1,39.6h9.8v41.9
			h-9.8V39.6z"/>
		<path class="st1" d="M156.6,18.5h22.6c3.4,0,6.4,0.6,9.1,1.8c2.7,1.2,5.1,2.8,7,4.8c1.9,2,3.4,4.4,4.5,7.1c1,2.7,1.6,5.5,1.6,8.4
			c0,2.3-0.3,4.5-0.9,6.5c-0.6,2.1-1.5,4-2.7,5.8c-1.2,1.8-2.6,3.4-4.2,4.8c-1.7,1.4-3.5,2.5-5.5,3.4l12.5,20.5h-11.8l-11.5-18.9
			h-10.3v18.9h-10.3V18.5z M179.2,53.3c1.8,0,3.4-0.3,4.9-1c1.5-0.7,2.7-1.6,3.7-2.8c1-1.2,1.8-2.5,2.4-4c0.6-1.5,0.9-3.2,0.9-4.9
			c0-1.7-0.3-3.4-0.9-4.9s-1.4-2.9-2.4-4c-1-1.2-2.3-2.1-3.7-2.8c-1.5-0.7-3.1-1-4.9-1h-12.2v25.6H179.2z"/>
		<path class="st1" d="M226.2,27.8v17.8h26v9.3h-26v17.4h26v9.3h-36.4v-63h36.4v9.3H226.2z"/>
		<path class="st1" d="M277,60.9c0,4.1,1.1,7.3,3.4,9.5c2.3,2.2,5.2,3.3,8.8,3.3c1.4,0,2.8-0.2,4-0.7s2.4-1.1,3.3-1.9
			c0.9-0.8,1.7-1.8,2.2-2.9c0.5-1.1,0.8-2.4,0.8-3.9c0-1.6-0.3-3-0.9-4c-0.6-1.1-1.4-2-2.4-2.7c-1-0.8-2.1-1.4-3.2-1.9
			c-1.2-0.5-2.3-0.9-3.4-1.3c-2.9-1-5.6-2.1-8.1-3.1c-2.5-1-4.7-2.3-6.6-3.8c-1.9-1.5-3.4-3.3-4.5-5.4c-1.1-2.1-1.6-4.7-1.6-7.9
			c0-2.6,0.5-4.9,1.6-7.1c1-2.1,2.5-4,4.2-5.5c1.8-1.5,3.8-2.7,6.2-3.5c2.4-0.8,4.9-1.2,7.5-1.2c2.8,0,5.5,0.5,7.9,1.4
			c2.5,1,4.6,2.3,6.4,4c1.8,1.7,3.2,3.8,4.2,6.2c1,2.4,1.5,5.1,1.5,8h-10.3c0-3.1-0.8-5.6-2.5-7.6c-1.7-1.9-4-2.9-6.9-2.9
			c-2.6,0-4.8,0.7-6.7,2c-1.9,1.3-2.8,3.3-2.8,6c0,1.3,0.3,2.4,0.8,3.4s1.2,1.8,2.1,2.6c0.9,0.7,1.8,1.4,2.9,1.9s2.2,1,3.4,1.4
			c2.5,0.9,5,1.9,7.5,2.9c2.5,1,4.9,2.3,7,3.8c2.1,1.5,3.8,3.3,5.1,5.4c1.3,2.1,2,4.7,2,7.7c0,3.2-0.6,6.1-1.7,8.5
			c-1.1,2.5-2.7,4.5-4.7,6.2c-2,1.7-4.3,2.9-6.9,3.8c-2.6,0.8-5.4,1.3-8.3,1.3c-2.9,0-5.6-0.5-8.2-1.5c-2.6-1-4.9-2.4-6.9-4.3
			c-2-1.9-3.6-4.2-4.8-6.9c-1.2-2.7-1.8-5.9-1.8-9.4H277z"/>
		<path class="st1" d="M385,61.2c-0.7,3.1-2,5.9-3.7,8.5c-1.7,2.6-3.9,5-6.5,6.9c-2.6,2-5.6,3.5-8.9,4.6c-3.4,1.1-7,1.7-10.8,1.7
			c-5.2,0-9.8-0.9-13.9-2.7c-4.1-1.8-7.5-4.2-10.4-7.2c-2.9-3-5-6.5-6.6-10.5s-2.3-8.2-2.3-12.6c0-4.3,0.7-8.4,2.2-12.3
			c1.5-4,3.6-7.5,6.4-10.5c2.8-3.1,6.1-5.5,10.1-7.3c3.9-1.8,8.4-2.7,13.4-2.7c4.7,0,8.8,0.6,12.5,1.9c3.6,1.3,6.7,3,9.3,5.2
			c2.6,2.2,4.6,4.8,6.2,7.7c1.5,3,2.5,6.2,3,9.6h-10.9c-0.4-2.2-1.1-4.2-2.1-6c-1.1-1.9-2.4-3.5-4-4.8c-1.6-1.4-3.5-2.4-5.6-3.2
			c-2.1-0.8-4.5-1.2-7.1-1.2c-3.6,0-6.8,0.7-9.7,2c-2.9,1.3-5.2,3.1-7.2,5.3c-1.9,2.2-3.4,4.7-4.4,7.6c-1,2.9-1.5,5.8-1.5,8.9
			c0,3.2,0.5,6.3,1.6,9.2c1,2.9,2.6,5.4,4.6,7.6c2,2.2,4.5,3.9,7.5,5.2s6.4,1.9,10.2,1.9c1.8,0,3.6-0.3,5.4-0.9
			c1.8-0.6,3.5-1.5,5.1-2.6c1.6-1.1,2.9-2.4,4.1-4s2-3.2,2.6-5H385z"/>
		<path class="st1" d="M416.6,60.3h-21.1v-8.7h21.1V60.3z"/>
		<path class="st1" d="M429.9,18.5h10.3v41.9c0,1.8,0.3,3.5,0.9,5.1c0.6,1.6,1.4,3,2.5,4.2c1.1,1.2,2.4,2.2,3.9,2.9
			c1.5,0.7,3.2,1.1,5,1.1c1.9,0,3.6-0.4,5.1-1.1c1.5-0.7,2.8-1.7,3.9-2.9c1.1-1.2,1.9-2.6,2.5-4.2c0.6-1.6,0.9-3.3,0.9-5.1V18.5
			h10.4v41.9c0,3.1-0.5,6-1.6,8.7c-1.1,2.7-2.6,5.1-4.6,7.2c-2,2.1-4.4,3.7-7.2,4.9c-2.8,1.2-5.9,1.8-9.4,1.8
			c-3.4,0-6.5-0.6-9.3-1.8c-2.8-1.2-5.1-2.8-7.1-4.9c-2-2.1-3.5-4.5-4.6-7.2c-1.1-2.7-1.6-5.6-1.6-8.7V18.5z"/>
	</g>
</g>
</svg>
